<svg class="icon" viewBox="0 0 1024 1024" xmlns="http://www.w3.org/2000/svg" width="32" height="32">
  <defs>
    <style/>
  </defs>
  <path d="M85.3333 512c0-235.648 190.976-426.6667 426.6667-426.6667 235.648 0 426.6667 190.976 426.6667 426.6667 0 235.648-190.976 426.6667-426.6667 426.6667-235.648 0-426.6667-190.976-426.6667-426.6667zM512 481.8347L406.3147 376.128a21.2693 21.2693 0 0 0-30.08.1067 21.2053 21.2053 0 0 0-.1067 30.08L481.8347 512 376.128 617.6853a21.2693 21.2693 0 0 0 .1067 30.08 21.2053 21.2053 0 0 0 30.08.1067L512 542.1653 617.6853 647.872a21.2693 21.2693 0 0 0 30.08-.1067 21.2053 21.2053 0 0 0 .1067-30.08L542.1653 512 647.872 406.3147a21.2693 21.2693 0 0 0-.1067-30.08 21.2053 21.2053 0 0 0-30.08-.1067L512 481.8347z" fill="currentColor"/>
</svg>
