<svg class="icon" viewBox="0 0 1024 1024" xmlns="http://www.w3.org/2000/svg" width="32" height="32">
  <defs>
    <style/>
  </defs>
  <path d="M669.7813 130.752c71.6374-11.0933 138.9014 11.4773 193.344 64.5333 55.3174 53.9307 81.8347 124.992 74.2827 199.5307-7.4667 73.6427-46.5493 146.368-112.32 210.4747-18.3467 17.8986-67.6693 66.2186-138.4533 135.6373-31.8294 31.232-65.7067 64.448-99.84 97.984L553.6 871.4667l-13.184 12.9493a40.5547 40.5547 0 0 1-56.832 0l-114.6027-112.64-24.2133-23.7227a677626.3467 677626.3467 0 0 0-145.856-142.7626C133.1413 541.184 94.08 468.48 86.6133 394.816c-7.552-74.5387 18.944-145.6 74.2827-199.5307 54.4427-53.056 121.7067-75.6053 193.344-64.5333 53.1627 8.2133 107.0933 34.688 157.7813 76.9493 50.7094-42.24 104.6187-68.736 157.7814-76.9493z" fill="currentColor"/>
</svg>
