<svg class="icon" viewBox="0 0 1024 1024" xmlns="http://www.w3.org/2000/svg" width="32" height="32">
  <defs>
    <style/>
  </defs>
  <path d="M710.5493 384.8107a12409.0453 12409.0453 0 0 0 47.4667-.32l8.7467-.0854c83.9893-.6186 141.44 67.584 126.72 150.2294l-46.1867 259.392c-10.0267 56.448-63.9147 101.5466-121.1307 101.5893L298.624 896a42.7307 42.7307 0 0 1-42.6667-42.4107l-.8106-383.9786a42.6667 42.6667 0 0 1 42.0266-42.6667l3.1574-.064c5.2266-.0427 11.7973-.0427 19.6266 0 91.9467.768 170.88-86.6987 170.7094-170.944-.1494-86.7413 39.7866-126.7627 106.4533-127.5733 62.2507-.7467 106.6027 59.6053 107.3493 149.12.2134 26.6026-6.2933 73.2373-14.5066 107.4346 6.1866 0 13.0773-.0426 20.5866-.0853zm-497.7066 63.232l.4906 426.5813A21.312 21.312 0 0 1 191.7867 896h-42.2614A21.3333 21.3333 0 0 1 128 874.624l.0427-426.5813a21.2693 21.2693 0 0 1 21.3973-21.376h41.984c11.6693 0 21.4187 9.5786 21.4187 21.376z" fill="currentColor"/>
</svg>
